<svg width="24" height="24" viewBox="0 0 24 24" fill="none" xmlns="http://www.w3.org/2000/svg">
<path d="M12.0001 0C18.6275 0 24 5.37259 24 12C24 18.6275 18.6275 24 12.0001 24C5.37259 24 0 18.6275 0 12C0 5.37259 5.37259 0 12.0001 0ZM15.5262 17.3989H8.47387C9.2562 20.2953 10.6161 22.2003 12.0001 22.2003C13.384 22.2003 14.7438 20.2953 15.5262 17.3989ZM6.61081 17.3996L3.34434 17.3993C4.49417 19.2388 6.21403 20.6853 8.25658 21.4915C7.62995 20.5078 7.11284 19.2766 6.7325 17.8735L6.61081 17.3996ZM20.6556 17.3993L17.3893 17.3996C17.0008 18.9998 16.4397 20.3985 15.7422 21.4915C17.6583 20.7357 19.2896 19.4171 20.4334 17.7396L20.6556 17.3993ZM6.11303 9.5996H2.08452L2.07881 9.62021C1.89634 10.3838 1.79972 11.1806 1.79972 12C1.79972 13.2672 2.03079 14.4804 2.45311 15.5999L6.26031 15.5994C6.08957 14.4606 5.99907 13.251 5.99907 12C5.99907 11.1794 6.03803 10.3765 6.11303 9.5996ZM16.0757 9.59969H7.92433C7.84271 10.3679 7.7988 11.1715 7.7988 12C7.7988 13.2713 7.90216 14.4834 8.08644 15.5996H15.9136C16.0979 14.4834 16.2012 13.2713 16.2012 12C16.2012 11.1715 16.1573 10.3679 16.0757 9.59969ZM21.916 9.59861L17.8869 9.59963C17.9621 10.3765 18.0009 11.1794 18.0009 12C18.0009 13.251 17.9105 14.4606 17.7397 15.5994L21.5469 15.5999C21.9692 14.4804 22.2003 13.2672 22.2003 12C22.2003 11.1729 22.1019 10.3687 21.916 9.59861ZM8.25784 2.50847L8.23037 2.51892C5.77396 3.49642 3.78706 5.4009 2.70162 7.80037L6.3588 7.8008C6.73478 5.69778 7.39088 3.86696 8.25784 2.50847ZM12.0001 1.79972L11.8612 1.80608C10.343 1.94497 8.8762 4.34697 8.19506 7.8003H15.805C15.1257 4.35664 13.6653 1.95845 12.1516 1.80731L12.0001 1.79972ZM15.7435 2.50854L15.8716 2.71741C16.6745 4.05217 17.2842 5.80376 17.6412 7.8008L21.2984 7.80037C20.261 5.50703 18.4001 3.66588 16.0929 2.65404L15.7435 2.50854Z" fill="#0175FF"/>
</svg>
