<svg width="24" height="24" viewBox="0 0 24 24" fill="none" xmlns="http://www.w3.org/2000/svg">
<path d="M22.6008 2.06253C22.5557 1.89126 22.4659 1.73502 22.3406 1.60977C22.2154 1.48453 22.0592 1.39477 21.8879 1.34964C19.8365 0.816833 17.6764 0.87422 15.6562 1.5152C13.636 2.15617 11.8379 3.35468 10.4689 4.9727L9.35401 6.29653L6.74921 5.66805C6.11595 5.44728 5.4242 5.46311 4.80169 5.7126C4.17919 5.9621 3.66799 6.42842 3.36249 7.02543L1.1623 10.9253C1.08521 11.0619 1.04134 11.2148 1.03423 11.3715C1.02712 11.5281 1.05698 11.6843 1.12138 11.8273C1.18579 11.9704 1.28294 12.0962 1.40498 12.1948C1.52703 12.2933 1.67054 12.3617 1.82392 12.3945L4.89667 13.0532C4.63638 13.8456 4.45052 14.6605 4.3415 15.4873C4.32174 15.6392 4.33713 15.7936 4.38648 15.9387C4.43584 16.0837 4.51784 16.2154 4.62616 16.3237L7.72626 19.4238C7.81908 19.5167 7.9293 19.5904 8.05061 19.6407C8.17192 19.691 8.30195 19.7168 8.43326 19.7168C8.46207 19.7168 8.49088 19.7154 8.52018 19.7129C9.36552 19.6369 10.2006 19.4727 11.0118 19.2229L11.6554 22.2261C11.6883 22.3794 11.7568 22.5229 11.8554 22.6449C11.9539 22.7669 12.0798 22.864 12.2228 22.9284C12.3658 22.9928 12.5219 23.0227 12.6786 23.0156C12.8352 23.0085 12.9881 22.9647 13.1247 22.8877L17.0299 20.6851C17.5796 20.3511 18.0089 19.8512 18.2561 19.2574C18.5032 18.6636 18.5553 18.0067 18.4049 17.3814L17.7362 14.6224L18.9733 13.4849C20.5974 12.1198 21.8005 10.3216 22.4427 8.29949C23.0848 6.27741 23.1397 4.11456 22.6008 2.06253ZM3.57197 10.7237L5.12812 7.96391C5.22478 7.77656 5.38945 7.63328 5.58838 7.56346C5.7873 7.49364 6.0054 7.50257 6.19794 7.58842L7.91535 8.00462L7.26535 8.77641C6.64911 9.51499 6.11612 10.3192 5.67603 11.1745L3.57197 10.7237ZM16.0422 18.9458L13.3264 20.4775L12.8969 18.4729C13.7675 18.0387 14.5786 17.4943 15.3103 16.853L16.0538 16.1694L16.4572 17.834C16.5095 18.0395 16.4978 18.2561 16.4237 18.4549C16.3495 18.6536 16.2164 18.8249 16.0422 18.9458ZM17.6564 11.9805L13.9719 15.3668C12.5134 16.628 10.7145 17.4297 8.80146 17.671L6.39716 15.2667C6.72008 13.3487 7.54888 11.5515 8.79804 10.0607L10.4764 8.06798C10.5043 8.03873 10.5304 8.00775 10.5545 7.97521L11.9895 6.27153C13.0504 5.01843 14.4249 4.06934 15.9727 3.52118C17.5204 2.97301 19.1859 2.84542 20.799 3.15141C21.1124 4.76963 20.9862 6.44228 20.4335 7.99514C19.8808 9.54799 18.9218 10.9242 17.6564 11.9805ZM16.7334 5.81677C16.4368 5.81677 16.1468 5.90475 15.9001 6.06957C15.6534 6.23439 15.4612 6.46866 15.3476 6.74275C15.2341 7.01684 15.2044 7.31844 15.2623 7.60941C15.3201 7.90038 15.463 8.16766 15.6728 8.37743C15.8826 8.58721 16.1498 8.73007 16.4408 8.78795C16.7318 8.84583 17.0334 8.81613 17.3075 8.70259C17.5816 8.58906 17.8158 8.3968 17.9806 8.15013C18.1455 7.90346 18.2334 7.61345 18.2334 7.31677C18.2335 7.11978 18.1947 6.92472 18.1193 6.74272C18.0439 6.56072 17.9334 6.39536 17.7941 6.25606C17.6548 6.11677 17.4895 6.00628 17.3075 5.9309C17.1255 5.85553 16.9304 5.81674 16.7334 5.81675L16.7334 5.81677Z" fill="#0175FF"/>
</svg>
