<svg width="20" height="21" viewBox="0 0 20 21" fill="none" xmlns="http://www.w3.org/2000/svg">
<path fill-rule="evenodd" clip-rule="evenodd" d="M0.516908 16.7214C-0.172303 17.3989 -0.172303 18.5018 0.516908 19.1798C1.20563 19.8582 2.32583 19.8582 3.00986 19.1798L3.50766 18.6945L5.58351 20.7375C5.93849 21.0875 6.50742 21.0875 6.86288 20.7375L9.95645 17.6921C10.312 17.3427 10.312 16.7825 9.95645 16.4326L7.88104 14.3895L11.5783 10.7452C12.3695 11.1476 13.2713 11.3748 14.2226 11.3748C17.4135 11.3748 20 8.82898 20 5.68745C20 2.54631 17.4135 0 14.2226 0C11.0315 0 8.44528 2.54631 8.44528 5.68745C8.44528 6.62399 8.6762 7.51179 9.08494 8.29062L0.516908 16.7214ZM12.0005 5.68745C12.0005 4.48 12.9961 3.49989 14.2226 3.49989C15.4492 3.49989 16.4446 4.48 16.4446 5.68745C16.4446 6.8949 15.4492 7.87487 14.2226 7.87487C12.9962 7.87487 12.0005 6.89485 12.0005 5.68745Z" fill="#0175FF"/>
</svg>
