<svg width="14" height="23" viewBox="0 0 14 23" fill="none" xmlns="http://www.w3.org/2000/svg">
<path d="M13.2182 16.0865C12.8289 18.3191 11.0001 19.7387 8.40136 20.0531V21.5625C8.40136 22.3563 7.77661 23 7.00311 23C6.22961 23 5.60136 22.3576 5.60136 21.5625V19.992C5.58196 19.9891 5.56479 19.9906 5.54532 19.9876C4.39951 19.8185 3.19638 19.3947 2.13545 19.0205L1.65288 18.8513C0.921429 18.5977 0.527679 17.7801 0.775304 17.0299C1.02293 16.2797 1.82005 15.874 2.5498 16.1279L3.04461 16.3012C3.98918 16.6339 5.05843 17.0114 5.95005 17.1426C8.01024 17.4549 10.1964 17.1047 10.4607 15.6112C10.6876 14.3287 9.97242 13.8193 6.63124 12.8844L5.97324 12.6994C4.05218 12.1469 0.0560538 11.0014 0.787553 6.87305C1.17474 4.67637 2.99562 3.25594 5.60136 2.94283V1.4375C5.60136 0.64373 6.2283 0 7.00224 0C7.77618 0 8.40136 0.64373 8.40136 1.4375V3.00752C8.42067 3.01033 8.4381 3.00954 8.45741 3.01252C9.19722 3.12622 10.042 3.34804 11.1139 3.71105C11.8493 3.95952 12.2488 4.77166 12.0068 5.52635C11.7649 6.27969 10.9704 6.68803 10.2389 6.44186C9.33241 6.13585 8.61491 5.94412 8.04441 5.85697C5.99511 5.54336 3.8063 5.89375 3.54118 7.38965C3.34824 8.48125 3.74899 9.07422 6.73011 9.92773L7.36843 10.1081C9.98949 10.8441 13.9532 11.9537 13.2182 16.0865Z" fill="#0175FF"/>
</svg>
