<svg width="22" height="22" viewBox="0 0 22 22" fill="none" xmlns="http://www.w3.org/2000/svg">
<path d="M21.9955 10.6969C21.9834 10.2595 21.5636 9.92357 21.1402 10.0339C20.6336 10.1665 20.1011 10.1645 19.5954 10.0281C19.0898 9.89162 18.6285 9.62551 18.2573 9.25605C18.1248 9.12122 18.0049 8.97448 17.8993 8.81768C17.8174 8.69237 17.6982 8.59589 17.5586 8.54178C17.419 8.48768 17.266 8.47867 17.121 8.51603C16.6176 8.64463 16.0893 8.63997 15.5882 8.50251C15.0871 8.36505 14.6304 8.09952 14.2631 7.73205C13.8957 7.36457 13.6303 6.90781 13.493 6.40667C13.3557 5.90553 13.3512 5.37729 13.48 4.87388C13.5171 4.729 13.508 4.57613 13.4539 4.43668C13.3998 4.29724 13.3035 4.17821 13.1783 4.09627C13.0226 3.99102 12.8772 3.87113 12.7442 3.73823C12.3744 3.36868 12.1078 2.90869 11.9711 2.40406C11.8343 1.89943 11.8322 1.36778 11.9648 0.862061C12.0756 0.436669 11.7377 0.0164216 11.2982 0.00456091C9.80372 -0.0385617 8.31623 0.224484 6.92718 0.777522C5.53814 1.33056 4.27691 2.1619 3.22105 3.22042C-1.19692 7.63839 -1.0687 14.8746 3.59677 19.1321C7.76725 22.936 14.2337 22.936 18.4041 19.1321C19.5759 18.0685 20.5036 16.7638 21.1235 15.3078C21.7434 13.8518 22.0409 12.2788 21.9955 10.6969ZM6.50337 10.3313C6.08638 10.2335 5.70308 10.026 5.39315 9.73041C5.08322 9.43478 4.85791 9.06171 4.74052 8.6498C4.62314 8.23788 4.61795 7.80208 4.72549 7.38749C4.83303 6.97289 5.0494 6.59456 5.35221 6.29164C5.65501 5.98872 6.03326 5.77221 6.44781 5.6645C6.86236 5.5568 7.29816 5.56182 7.71012 5.67904C8.12208 5.79627 8.49524 6.02143 8.79099 6.33125C9.08674 6.64107 9.29433 7.02428 9.39229 7.44124C9.49081 7.84023 9.48464 8.2579 9.3744 8.65382C9.26416 9.04973 9.05357 9.41048 8.76303 9.70114C8.47248 9.9918 8.11181 10.2025 7.71594 10.3129C7.32007 10.4233 6.90241 10.4296 6.50337 10.3313ZM10.0005 16.1796C9.94743 16.4268 9.82847 16.6549 9.65626 16.84C9.48404 17.025 9.26498 17.16 9.02229 17.2306C8.77959 17.3013 8.52231 17.3049 8.27769 17.2413C8.03307 17.1776 7.81024 17.0489 7.6328 16.8689C7.45537 16.6889 7.32993 16.4642 7.2698 16.2187C7.20966 15.9732 7.21706 15.716 7.29121 15.4743C7.36536 15.2327 7.5035 15.0156 7.69099 14.8461C7.87849 14.6766 8.10835 14.5609 8.35622 14.5114C8.584 14.4661 8.81946 14.4781 9.04145 14.5464C9.26344 14.6146 9.46501 14.7369 9.62803 14.9023C9.79106 15.0677 9.91044 15.271 9.97546 15.494C10.0405 15.7169 10.0491 15.9525 10.0005 16.1796V16.1796ZM17.8917 13.4091C17.8391 13.7369 17.697 14.0439 17.481 14.296C17.2649 14.5482 16.9834 14.7357 16.6676 14.838C16.3517 14.9403 16.0137 14.9533 15.6908 14.8755C15.368 14.7978 15.073 14.6324 14.8382 14.3976C14.6035 14.1628 14.4382 13.8676 14.3607 13.5448C14.2831 13.2219 14.2962 12.8839 14.3986 12.5681C14.501 12.2522 14.6887 11.9708 14.9409 11.7549C15.1932 11.539 15.5002 11.397 15.828 11.3446C16.109 11.3014 16.3962 11.325 16.6663 11.4135C16.9365 11.502 17.182 11.6529 17.3829 11.854C17.5839 12.055 17.7347 12.3006 17.8231 12.5708C17.9115 12.8409 17.935 13.1281 17.8917 13.4091V13.4091Z" fill="#0175FF"/>
</svg>
