<svg width="21" height="18" viewBox="0 0 21 18" fill="none" xmlns="http://www.w3.org/2000/svg">
<path d="M17.5839 6.75C18.8307 6.75 21 7.76953 21 9C21 10.2656 18.8307 11.25 17.5839 11.25H13.3328L9.66875 17.434C9.46094 17.782 9.07448 18 8.65521 18H6.60625C6.21979 18 5.93906 17.6414 6.04479 17.2828L7.8349 11.25H4.08333L2.50833 13.275C2.39823 13.4156 2.22542 13.5 2.04167 13.5H0.51151C0.229104 13.5 0 13.2785 0 12.9762C0 12.9621 0.00662812 12.9164 0.0196802 12.8707L1.16667 9L0.0196802 5.1293C0.00662812 5.08359 0 5.03789 0 4.99219C0 4.72148 0.229104 4.5 0.51151 4.5H2.04167C2.22542 4.5 2.39823 4.58437 2.50833 4.725L4.08333 6.75H7.8349L6.04479 0.717187C5.93906 0.357539 6.21979 0 6.60625 0H8.65521C9.07448 0 9.46094 0.216316 9.66875 0.566719L13.3328 6.75H17.5839Z" fill="#0175FF"/>
</svg>
