<svg width="568" height="551" viewBox="0 0 568 551" fill="none" xmlns="http://www.w3.org/2000/svg">
<path d="M453.018 518.573L119.859 140.229L-90 518.573C-90 518.573 84.9432 494.81 191.757 359.767C194.268 356.593 453.018 518.573 453.018 518.573Z" fill="#DEDEDE"/>
<path d="M197.546 0.186523L119.863 140.23L453.022 518.575L325.284 259.381L245.411 97.3048L197.546 0.186523Z" fill="#DEDEDE"/>
<path d="M197.547 0.1875L-90 518.581C-90 518.581 37.1056 465.877 122.441 320.876L44.4364 276.59L122.441 320.876C168.377 242.822 202.414 138.463 197.547 0.1875Z" fill="#DEDEDE"/>
<path d="M245.296 97.1195L197.433 0C194.579 80.6935 187.239 154.24 174.043 201.753L233.628 269.844C247.017 218.46 253.358 162.483 245.296 97.1195Z" fill="#DEDEDE"/>
<path d="M234.399 269.73C224.607 311.799 208.84 342.594 192.02 359.749L122.449 320.881C133.652 300.396 158.88 248.537 174.052 201.758L234.399 269.73Z" fill="#DEDEDE"/>
</svg>
