<svg width="1137" height="748" viewBox="0 0 1137 748" fill="none" xmlns="http://www.w3.org/2000/svg">
<path d="M787.121 685.02L685.48 0.0525597L864.131 0L910.116 473.047L787.121 685.02Z" fill="#F4F4F4"/>
<path d="M973.974 687.276L1377 0.898498L1184.05 0.193359L787.113 685.019L973.974 687.276Z" fill="#F4F4F4"/>
<path d="M730.21 704.945L282.203 196.175L0 704.945C0 704.945 235.251 672.99 378.887 491.393C382.263 487.125 730.21 704.945 730.21 704.945Z" fill="#F4F4F4"/>
<path d="M386.67 7.85742L282.209 196.178L730.216 704.948L558.443 356.403L451.036 138.455L386.67 7.85742Z" fill="#F4F4F4"/>
<path d="M386.672 7.8584L0 704.956C0 704.956 170.922 634.083 285.674 439.097L180.78 379.545L285.674 439.097C347.446 334.136 393.217 193.801 386.672 7.8584Z" fill="#F4F4F4"/>
<path d="M450.881 138.206L386.518 7.60645C382.68 116.117 372.809 215.016 355.064 278.91L435.19 370.472C453.194 301.376 461.721 226.102 450.881 138.206Z" fill="#F4F4F4"/>
<path d="M436.228 370.32C423.06 426.891 401.858 468.302 379.24 491.371L285.686 439.104C300.75 411.558 334.675 341.821 355.077 278.916L436.228 370.32Z" fill="#F4F4F4"/>
</svg>
