<svg width="102" height="82" viewBox="0 0 102 82" fill="none" xmlns="http://www.w3.org/2000/svg">
<g clip-path="url(#clip0_88_391)">
<path d="M50.9964 7.82695C49.4063 3.83332 45.5326 -0.479768 38.2774 0.112732C29.0353 1.12336 26.1552 10.0325 27.5522 15.3475C23.8712 12.8403 17.6122 11.7379 12.1491 16.4451C5.09537 23.5576 8.86837 33.1764 12.746 35.4836C8.47248 35.0856 1.71825 37.9903 0.224064 45.5887C-1.36545 55.0227 5.78409 60.5224 12.746 60.5224H89.9459C97.9964 60.5224 102.463 53.5168 101.962 46.9099C101.172 38.2872 93.3279 34.9789 89.049 35.6878C92.6239 33.6815 97.3983 24.2571 90.1384 16.8481C84.3755 11.3342 77.029 13.3406 74.4459 15.7454C75.8383 11.1392 73.5548 1.61763 64.208 0.111707C63.5618 0.0389438 62.9397 0 62.3469 0C55.2117 0.00102483 52.0033 5.24759 50.9964 7.82695Z" fill="white"/>
<path d="M13.4352 17.9458C9.35951 21.6572 7.87609 30.0666 15.2234 34.9826L44.5352 55.2112L30.3229 22.4586C27.3447 14.7297 19.1973 13.0443 13.4352 17.9458Z" fill="#F37021"/>
<path d="M38.666 2.02227C33.9014 2.11993 26.7468 7.82722 29.9308 16.5424L44.6303 51.414L49.7956 14.7358C50.9908 5.62207 44.1342 1.41499 38.666 2.02227Z" fill="#CC004C"/>
<path d="M52.0899 13.3372H54.8694C54.8694 13.3372 56.3537 13.3372 56.5557 14.0415C55.4619 14.94 52.4848 15.0526 52.8801 19.8519L57.5526 51.4093L72.1516 16.4462C75.1378 8.63964 68.8698 2.11994 63.3098 1.92068C63.0502 1.90194 62.7895 1.88672 62.5196 1.88672C57.5293 1.88657 51.8105 5.53483 52.0899 13.3372Z" fill="#6460AA"/>
<path d="M71.5642 22.7554L57.7559 55.1151L87.059 34.7797C93.8139 29.9604 92.7244 22.2554 88.9433 18.4468C87.3581 16.6542 84.4476 15.2695 81.3645 15.2695C77.7221 15.2688 73.8239 17.2122 71.5642 22.7554Z" fill="#0089D0"/>
<path d="M83.777 39.3857L56.2578 58.721H90.1419C97.0936 58.721 101.561 51.5111 99.5751 44.8948C98.2449 40.736 94.3096 37.4715 89.742 37.4668C87.8193 37.4675 85.7803 38.0501 83.777 39.3857Z" fill="#0DB14B"/>
<path d="M12.6441 58.7205H46.0283L18.502 39.3852C12.1428 35.2753 4.99237 37.6802 2.41095 44.5004C0.222803 52.3078 5.68619 58.7205 12.6441 58.7205Z" fill="#FCB711"/>
<path d="M0.107422 72.7141C0.107422 76.0071 2.78359 82.001 13.0021 82.001C22.4234 82.001 25.3989 77.6525 25.3989 75.6586H18.1051C18.1051 75.6586 17.7587 78.2929 13.6443 78.2929C9.52721 78.2929 8.41377 74.8361 8.41377 72.8373C8.41377 70.846 9.52721 67.5759 13.6443 67.5759C17.7587 67.5759 18.1051 69.8693 18.1051 69.8693H25.3989C25.3989 67.8731 23.2157 63.5859 13.0021 63.5859C2.78359 63.5859 0.107422 69.9695 0.107422 72.7141Z" fill="#292526"/>
<path d="M76.6016 72.7141C76.6016 76.0071 79.2805 82.001 89.4963 82.001C98.9166 82.001 101.893 77.6525 101.893 75.6586H94.6047C94.6047 75.6586 94.2567 78.2929 90.1412 78.2929C86.0237 78.2929 84.9091 74.8361 84.9091 72.8373C84.9091 70.846 86.0237 67.5759 90.1412 67.5759C94.2567 67.5759 94.6047 69.8693 94.6047 69.8693H101.893C101.893 67.8731 99.7125 63.5859 89.4963 63.5859C79.2806 63.5859 76.6016 69.9695 76.6016 72.7141Z" fill="#292526"/>
<path d="M45.334 63.8926V75.04L36.8456 63.8926H27.2969V81.5491H33.8431V70.2736L42.1829 81.5491H51.8807V63.8926H45.334Z" fill="#292526"/>
<path d="M66.3104 77.3309V77.3542H60.8558V74.1122H66.3104V74.1227C67.475 74.1227 68.4163 74.8428 68.4163 75.7294C68.4163 76.6138 67.475 77.3309 66.3104 77.3309ZM60.9059 67.3266H66.1616V67.3341C67.0521 67.3341 67.7741 67.9234 67.7741 68.6487C67.7741 69.3767 67.0521 69.9609 66.1616 69.9609V69.9688H60.9059V67.3266ZM71.6675 72.1622C72.8592 72.1622 75.351 70.7707 75.351 68.0748C75.351 64.2359 68.2444 63.8926 67.1542 63.8926H54.0605V81.5491H67.1542C73.4518 81.5491 75.9815 79.5479 75.9815 76.2061C75.9815 72.8642 71.6675 72.1622 71.6675 72.1622Z" fill="#292526"/>
</g>
<defs>
<clipPath id="clip0_88_391">
<rect width="102" height="82" fill="white"/>
</clipPath>
</defs>
</svg>
