<svg width="164" height="29" viewBox="0 0 164 29" fill="none" xmlns="http://www.w3.org/2000/svg">
<path d="M123.21 14.4149C123.25 14.3662 123.265 13.7396 123.234 13.3728C123.22 13.2 123.192 13.0314 123.165 12.9529C123.14 12.8808 123.119 12.8068 123.119 12.7885C123.119 12.7318 122.963 12.4049 122.832 12.1886C122.684 11.9433 122.314 11.5601 122.067 11.3946C121.697 11.1473 121.19 10.9484 120.745 10.8762C120.66 10.8623 120.524 10.8401 120.444 10.8269C120.365 10.8137 120.069 10.8018 119.787 10.8005C119.177 10.7976 118.947 10.8292 118.309 11.0037C118.22 11.0282 118.135 11.0579 118.12 11.0697C118.105 11.0815 118.068 11.0983 118.037 11.1071C117.92 11.1407 117.473 11.3583 117.246 11.4928C116.718 11.8048 116.242 12.2063 115.89 12.6362C115.788 12.7604 115.649 12.947 115.581 13.0508C115.463 13.23 115.251 13.5976 115.251 13.6223C115.251 13.6286 115.222 13.695 115.187 13.7698C115.106 13.9429 115.038 14.1174 114.993 14.2709C114.959 14.3849 114.959 14.3934 114.996 14.4208C115.029 14.4444 115.791 14.4498 119.109 14.4498C122.781 14.4498 123.184 14.4464 123.21 14.4149H123.21ZM117.313 26.5961C117.178 26.5873 116.987 26.569 116.889 26.5554C116.791 26.5419 116.595 26.5203 116.454 26.5074C116.313 26.4945 116.143 26.4701 116.075 26.4531C116.008 26.4361 115.903 26.4161 115.841 26.4087C115.544 26.3728 114.649 26.1392 114.297 26.0058C114.22 25.9767 114.145 25.9527 114.13 25.9526C114.115 25.9524 114.053 25.9278 113.991 25.8978C113.93 25.8677 113.868 25.8429 113.854 25.8425C113.749 25.8396 112.752 25.3277 112.406 25.0995C112.272 25.011 112.101 24.8968 112.055 24.8647C111.778 24.6737 111.347 24.3084 111.073 24.0324C110.752 23.7081 110.248 23.0877 110.113 22.8504C110.094 22.8163 110.049 22.7434 110.013 22.6884C109.859 22.4501 109.631 22.0248 109.514 21.7558C109.468 21.6519 109.417 21.537 109.399 21.5004C109.336 21.3656 109.235 21.0696 109.084 20.5788C109.023 20.378 108.915 19.8324 108.864 19.4685C108.794 18.9652 108.783 18.7194 108.792 17.8696C108.799 17.1465 108.808 16.9547 108.851 16.626C108.935 15.9736 109.06 15.3074 109.166 14.9383C109.189 14.8589 109.218 14.744 109.231 14.683C109.244 14.6219 109.269 14.5369 109.286 14.4942C109.303 14.4514 109.356 14.2966 109.402 14.1501C109.449 14.0036 109.505 13.8491 109.527 13.8068C109.549 13.7644 109.567 13.7157 109.567 13.6984C109.567 13.6657 109.644 13.4753 109.736 13.2836C109.765 13.2224 109.789 13.1645 109.789 13.155C109.789 13.1202 110.137 12.4311 110.307 12.1292C111.094 10.7325 112.177 9.51192 113.423 8.61803C113.676 8.4364 113.792 8.35831 114.058 8.1914C114.107 8.16061 114.183 8.11216 114.227 8.08374C114.27 8.05532 114.313 8.03207 114.322 8.03207C114.331 8.03207 114.375 8.00776 114.421 7.97801C114.505 7.923 115.015 7.65214 115.117 7.60836C115.228 7.56031 115.42 7.47033 115.521 7.4187C115.578 7.38965 115.639 7.36581 115.655 7.36573C115.672 7.36573 115.715 7.34963 115.752 7.33011C115.789 7.3106 115.869 7.27647 115.931 7.25429C115.992 7.2321 116.127 7.18279 116.231 7.14471C116.524 7.03772 117.016 6.8903 117.279 6.83035C117.334 6.81779 117.46 6.78805 117.558 6.76424C117.656 6.74043 117.826 6.70667 117.937 6.68922C118.047 6.67178 118.228 6.64258 118.338 6.62436C118.607 6.57987 119.087 6.52763 119.508 6.49697C119.948 6.46491 121.104 6.48556 121.414 6.53101C121.537 6.54901 121.742 6.57441 121.871 6.58748C122.323 6.63334 123.258 6.85585 123.743 7.03285C123.848 7.07087 123.974 7.11532 124.023 7.13163C124.073 7.14794 124.153 7.18233 124.201 7.20806C124.249 7.23379 124.297 7.25484 124.307 7.25484C124.327 7.25484 124.603 7.37855 124.657 7.41209C124.676 7.42336 124.715 7.44298 124.745 7.45567C124.81 7.48362 125.226 7.71439 125.304 7.766C125.334 7.78633 125.455 7.8661 125.571 7.94329C126.402 8.49382 127.109 9.24668 127.626 10.1304C127.736 10.3191 128.001 10.8375 128.001 10.8646C128.001 10.8735 128.021 10.9218 128.045 10.972C128.13 11.1518 128.227 11.4255 128.378 11.9182C128.426 12.0746 128.505 12.4268 128.539 12.6399C128.551 12.7132 128.581 12.8931 128.605 13.0397C128.712 13.6824 128.712 15.1571 128.605 15.9376C128.469 16.9265 128.454 17.0261 128.41 17.2478C128.391 17.3394 128.367 17.4643 128.355 17.5254C128.316 17.7404 128.215 18.1475 128.194 18.1749C128.178 18.1971 126.792 18.2027 121.392 18.2027C114.965 18.2027 114.607 18.2048 114.561 18.2416C114.502 18.2894 114.462 18.5312 114.483 18.7135C114.52 19.032 114.586 19.3715 114.641 19.5286C114.925 20.3307 115.584 21.0317 116.454 21.4568C116.814 21.6325 116.896 21.6646 117.257 21.7695C117.566 21.8593 117.931 21.9258 118.297 21.9587C118.575 21.9837 119.299 21.9688 119.482 21.9343C119.539 21.9234 119.696 21.8984 119.83 21.8786C120.321 21.8061 121.025 21.5785 121.381 21.3774C121.399 21.367 121.492 21.3178 121.588 21.2681C121.684 21.2184 121.789 21.1594 121.822 21.1369C121.855 21.1145 121.973 21.0374 122.083 20.9656C122.351 20.7915 122.747 20.4757 123.011 20.2266C123.129 20.115 123.245 20.0236 123.268 20.0236C123.291 20.0236 123.356 20.0611 123.413 20.1069C123.469 20.1527 123.704 20.3351 123.933 20.5122C124.162 20.6893 124.432 20.8975 124.532 20.975C124.926 21.2811 125.043 21.3711 125.167 21.4671C126.405 22.42 127.087 22.9637 127.087 22.9969C127.087 23.0337 126.651 23.4782 126.372 23.7255C125.91 24.1354 125.377 24.5361 124.914 24.8213C124.791 24.8968 124.665 24.9767 124.633 24.9989C124.601 25.0211 124.54 25.0555 124.499 25.0753C124.457 25.0951 124.373 25.1401 124.312 25.1752C124.099 25.2969 123.426 25.6197 123.385 25.6197C123.372 25.6197 123.315 25.6447 123.258 25.6752C123.2 25.7058 123.138 25.7311 123.12 25.7314C123.101 25.7317 123.036 25.7567 122.974 25.7867C122.913 25.8168 122.846 25.8415 122.824 25.8416C122.803 25.8418 122.723 25.8661 122.646 25.8958C122.47 25.9639 122.315 26.0144 122.169 26.0517C122.106 26.0678 121.993 26.1021 121.918 26.1279C121.843 26.1537 121.765 26.1749 121.744 26.1749C121.723 26.1749 121.615 26.1991 121.504 26.2287C121.251 26.2963 120.892 26.3713 120.645 26.4079C120.541 26.4234 120.355 26.4518 120.233 26.471C119.973 26.5117 119.442 26.5672 119.029 26.5969C118.699 26.6206 117.679 26.6201 117.313 26.5961L117.313 26.5961Z" fill="#0394E8"/>
<path d="M139.725 26.6035C139.427 26.5898 138.589 26.4897 138.299 26.4331C138.207 26.4151 138.076 26.3908 138.009 26.3791C137.874 26.3555 137.641 26.3015 137.452 26.2497C137.384 26.2313 137.258 26.1986 137.171 26.177C137.085 26.1554 137 26.1293 136.983 26.1189C136.966 26.1085 136.892 26.0825 136.818 26.061C136.572 25.9902 136.438 25.9405 136.058 25.78C135.715 25.6346 135.201 25.3745 134.977 25.2322C134.378 24.8514 134.037 24.5891 133.627 24.1932C132.931 23.5208 132.406 22.7929 131.997 21.9332C131.936 21.8049 131.866 21.65 131.841 21.589C131.816 21.5279 131.773 21.423 131.746 21.3558C131.719 21.2886 131.683 21.1887 131.667 21.1337C131.65 21.0788 131.621 20.9888 131.602 20.9339C131.547 20.7718 131.461 20.4634 131.445 20.3676C131.437 20.3188 131.412 20.1938 131.388 20.09C131.314 19.7637 131.235 19.0579 131.222 18.6133C131.207 18.0984 131.241 17.2011 131.286 16.9145C131.304 16.7985 131.325 16.6286 131.333 16.537C131.341 16.4454 131.366 16.2805 131.389 16.1706C131.412 16.0606 131.437 15.9257 131.445 15.8708C131.452 15.8158 131.477 15.6959 131.5 15.6043C131.522 15.5127 131.558 15.3678 131.579 15.2823C131.6 15.1968 131.632 15.0669 131.65 14.9936C131.668 14.9203 131.702 14.8104 131.725 14.7493C131.748 14.6883 131.776 14.5983 131.789 14.5495C131.818 14.4333 131.929 14.1137 131.954 14.0756C131.965 14.0592 131.986 13.9993 132.002 13.9424C132.038 13.8158 132.163 13.5136 132.192 13.4847C132.204 13.4731 132.213 13.4484 132.213 13.4299C132.213 13.399 132.319 13.172 132.519 12.7729C132.641 12.5303 132.743 12.3437 132.856 12.1564C132.913 12.0616 132.974 11.9574 132.991 11.9247C133.044 11.8236 133.437 11.2532 133.613 11.0213C134.18 10.275 134.998 9.44256 135.668 8.92806C136.111 8.58828 136.44 8.36285 136.794 8.15599C136.917 8.08436 137.042 8.00973 137.073 7.99014C137.234 7.88678 138.288 7.36564 138.335 7.36564C138.344 7.36564 138.392 7.34623 138.442 7.32251C138.533 7.27906 138.618 7.24641 138.823 7.17524C138.884 7.15394 138.99 7.11311 139.059 7.08452C139.128 7.05593 139.204 7.0321 139.227 7.03157C139.25 7.03104 139.308 7.01523 139.358 6.99647C139.448 6.96182 139.641 6.90754 139.904 6.84323C139.983 6.82369 140.144 6.7843 140.26 6.75571C140.377 6.72713 140.532 6.6974 140.606 6.68965C140.679 6.68189 140.795 6.66116 140.864 6.64355C140.932 6.62595 141.097 6.6018 141.231 6.5899C141.365 6.578 141.545 6.55836 141.631 6.54625C142.243 6.45987 143.472 6.45832 144.206 6.54303C144.986 6.63314 145.735 6.78311 146.279 6.95826C146.334 6.97601 146.434 7.00567 146.502 7.02413C146.569 7.0426 146.665 7.07703 146.715 7.10064C146.765 7.12425 146.817 7.14358 146.83 7.14358C146.922 7.14358 147.897 7.59144 148.139 7.74506C148.712 8.10852 148.95 8.29203 149.318 8.6512C149.589 8.91638 149.957 9.35678 149.957 9.41633C149.957 9.4348 149.924 9.48312 149.884 9.52373C149.804 9.6058 148.95 10.4192 148.62 10.7287C148.384 10.9496 148.138 11.1823 147.739 11.5632C147.507 11.7841 146.854 12.4059 146.33 12.9033C146.142 13.0818 146.104 13.0852 145.995 12.9337C145.788 12.6458 145.297 12.2387 144.852 11.9851C144.741 11.9217 144.462 11.7858 144.44 11.7846C144.428 11.7838 144.367 11.7588 144.306 11.7288C144.245 11.6987 144.181 11.674 144.164 11.6739C144.147 11.6739 144.057 11.6498 143.963 11.6205C143.87 11.5912 143.673 11.5437 143.526 11.515C143.291 11.4692 143.195 11.4628 142.746 11.4634C142.313 11.464 142.188 11.472 141.943 11.5149C141.43 11.6048 140.989 11.7253 140.717 11.85C140.124 12.1219 139.859 12.2781 139.44 12.6007C139.04 12.9094 138.605 13.3761 138.279 13.8465C138.118 14.0787 137.805 14.6198 137.776 14.716C137.767 14.7466 137.745 14.7933 137.728 14.82C137.632 14.9718 137.395 15.6569 137.33 15.9707C137.312 16.0562 137.286 16.1611 137.273 16.2039C137.247 16.2879 137.199 16.6772 137.162 17.1032C137.139 17.3715 137.153 17.6937 137.208 18.1581C137.266 18.6511 137.511 19.3774 137.736 19.7236C137.768 19.7725 137.819 19.8524 137.851 19.9013C138.102 20.2916 138.677 20.8177 139.04 20.9899C139.08 21.0087 139.167 21.053 139.235 21.0883C139.469 21.2107 140.066 21.4223 140.178 21.4225C140.205 21.4225 140.332 21.4443 140.461 21.4709C140.666 21.5133 140.768 21.5193 141.297 21.5204C141.826 21.5214 141.934 21.5155 142.188 21.4712C142.849 21.3563 143.128 21.2722 143.57 21.0541C144.094 20.796 144.458 20.5494 144.931 20.133C145.25 19.8518 145.268 19.8381 145.295 19.8552C145.308 19.8633 145.399 19.9769 145.497 20.1077C145.594 20.2384 145.719 20.4054 145.775 20.4786C145.831 20.5519 146.018 20.8017 146.191 21.0338C146.696 21.712 147.776 23.1598 148.016 23.4793C148.09 23.5786 148.151 23.6757 148.151 23.6951C148.151 23.7145 148.117 23.7643 148.076 23.8058C148.003 23.8783 147.419 24.3479 147.304 24.4262C147.274 24.4471 147.143 24.5393 147.014 24.6311C146.886 24.7228 146.745 24.8182 146.702 24.843C146.659 24.8679 146.579 24.9171 146.524 24.9525C146.353 25.0624 146.124 25.1961 145.944 25.2906C145.647 25.4477 145.535 25.5023 144.952 25.7752C144.73 25.8795 144.097 26.1066 143.838 26.175C143.752 26.1977 143.627 26.2313 143.559 26.2496C143.292 26.3222 143.048 26.3769 142.857 26.4072C142.747 26.4246 142.566 26.454 142.456 26.4726C142.199 26.5156 141.674 26.5732 141.312 26.5979C141.051 26.6156 140.064 26.6191 139.725 26.6035L139.725 26.6035Z" fill="#0394E8"/>
<path d="M42.6728 14.3037C42.7128 14.2556 42.7279 13.6105 42.6973 13.2577C42.6606 12.8358 42.5407 12.4842 42.2948 12.0775C42.1465 11.8322 41.7772 11.449 41.5296 11.2836C41.1844 11.0528 40.6806 10.8466 40.3197 10.7882C40.2461 10.7763 40.0907 10.7494 39.9742 10.7285C39.8171 10.7003 39.6301 10.69 39.2497 10.6887C38.7256 10.6869 38.4246 10.7202 38.0349 10.823C37.698 10.9118 37.6072 10.939 37.5825 10.9587C37.5677 10.9704 37.5306 10.9873 37.4999 10.996C37.4065 11.0228 37.1072 11.1662 36.7716 11.3451C36.653 11.4083 36.2863 11.6514 36.1179 11.7784C35.9177 11.9294 35.5336 12.3045 35.3532 12.5252C35.0954 12.8405 34.9543 13.0562 34.7651 13.4241C34.605 13.7356 34.557 13.8496 34.4649 14.1375C34.4211 14.2745 34.4208 14.2816 34.4592 14.3096C34.4919 14.3334 35.2457 14.3387 38.5714 14.3387C42.254 14.3387 42.6464 14.3354 42.6728 14.3037H42.6728ZM36.7532 26.4845C36.6061 26.4753 36.4205 26.4574 36.3408 26.4446C36.2611 26.4318 36.0755 26.4105 35.9284 26.3972C35.7813 26.3839 35.6058 26.3591 35.5383 26.3421C35.4709 26.3251 35.3656 26.3051 35.3043 26.2977C34.999 26.2608 34.1309 26.034 33.7602 25.8944C33.6833 25.8654 33.6081 25.8416 33.593 25.8415C33.5779 25.8413 33.5154 25.8167 33.4541 25.7867C33.3928 25.7567 33.3313 25.7318 33.3173 25.7314C33.3034 25.7311 33.2231 25.6994 33.139 25.6612C33.0549 25.6229 32.9309 25.5671 32.8634 25.5371C32.796 25.5071 32.7258 25.4744 32.7074 25.4643C32.689 25.4542 32.5987 25.4078 32.5068 25.3611C32.4148 25.3144 32.2632 25.2299 32.1699 25.1732C32.0766 25.1166 31.9913 25.0664 31.9804 25.0618C31.9632 25.0545 31.6859 24.8701 31.526 24.7596C31.2456 24.5658 30.8437 24.2272 30.5669 23.9514C30.2343 23.62 29.7172 22.9877 29.5758 22.7393C29.5564 22.7052 29.5115 22.6323 29.4759 22.5774C29.3219 22.339 29.0941 21.9137 28.9764 21.6447C28.931 21.5409 28.8796 21.426 28.8624 21.3893C28.7987 21.2545 28.6975 20.9585 28.5473 20.4677C28.4858 20.2669 28.3775 19.7213 28.327 19.3574C28.257 18.8542 28.2459 18.6084 28.2544 17.7585C28.2617 17.0354 28.2708 16.8437 28.3134 16.515C28.3971 15.8693 28.5223 15.2001 28.629 14.8273C28.6518 14.7479 28.6811 14.633 28.6942 14.5719C28.7073 14.5108 28.732 14.4259 28.7491 14.3831C28.7662 14.3404 28.8185 14.1856 28.8654 14.0391C28.9123 13.8926 28.9684 13.7381 28.99 13.6957C29.0117 13.6534 29.0294 13.6046 29.0294 13.5873C29.0294 13.5547 29.1073 13.3642 29.199 13.1726C29.2284 13.1113 29.2523 13.0534 29.2523 13.0439C29.2523 13.0091 29.6002 12.32 29.7701 12.0181C30.281 11.1106 30.858 10.3486 31.5849 9.62148C32.1394 9.06669 32.7392 8.5783 33.326 8.20357C33.5507 8.06008 33.7128 7.96077 33.8219 7.89974C33.8526 7.88261 33.9328 7.83741 34.0003 7.7993C34.0677 7.7612 34.2934 7.64728 34.5018 7.54615C34.7102 7.44501 34.9274 7.33809 34.9843 7.30854C35.0413 7.27899 35.1015 7.25475 35.1181 7.25467C35.1347 7.25467 35.1783 7.23857 35.2151 7.21905C35.2519 7.19954 35.3321 7.16541 35.3934 7.14322C35.4547 7.12104 35.5902 7.07187 35.6944 7.03397C35.9507 6.94072 36.2143 6.85783 36.3661 6.82275C36.4351 6.80678 36.553 6.77255 36.6281 6.74668C36.7031 6.72082 36.7872 6.69965 36.815 6.69965C36.8428 6.69965 36.9363 6.68011 37.0227 6.65625C37.1092 6.63238 37.2745 6.59791 37.3901 6.57966C37.5057 6.5614 37.6905 6.53154 37.8008 6.51332C38.0697 6.46889 38.5494 6.41664 38.9711 6.38584C39.4061 6.35407 40.564 6.37506 40.877 6.42038C40.9996 6.43813 41.2052 6.46335 41.3339 6.47642C41.7797 6.52166 42.7268 6.74696 43.2063 6.92183C43.3105 6.95983 43.4365 7.00426 43.4862 7.02057C43.5359 7.03688 43.616 7.07127 43.6642 7.097C43.7124 7.12273 43.7602 7.14378 43.7705 7.14378C43.8223 7.14378 44.5241 7.50259 44.7444 7.64176C45.7868 8.3002 46.5161 9.03986 47.0886 10.0193C47.1989 10.2081 47.4639 10.7265 47.4639 10.7536C47.4639 10.7625 47.4835 10.8108 47.5075 10.861C47.5918 11.0375 47.7048 11.3571 47.8341 11.785C47.8802 11.9376 47.9741 12.3521 48.0026 12.5289C48.0144 12.6022 48.0439 12.782 48.0683 12.9286C48.1748 13.5698 48.1747 15.04 48.0683 15.8266C47.9584 16.6377 47.9162 16.9201 47.8725 17.1367C47.854 17.2284 47.8296 17.3533 47.8183 17.4143C47.7786 17.6293 47.6777 18.0364 47.6574 18.0639C47.641 18.086 46.2545 18.0916 40.8545 18.0916C34.4283 18.0916 34.0696 18.0937 34.0241 18.1305C33.965 18.1784 33.9249 18.4201 33.9459 18.6024C33.9826 18.921 34.0484 19.2604 34.104 19.4175C34.1697 19.6029 34.3412 19.9498 34.4271 20.071C34.7402 20.5125 35.0157 20.7844 35.4384 21.0691C35.6447 21.208 35.69 21.2342 35.9173 21.3455C36.2746 21.5206 36.3588 21.5534 36.7198 21.6584C37.0287 21.7482 37.3942 21.8147 37.7601 21.8476C38.0379 21.8726 38.7614 21.8577 38.9446 21.8232C39.0021 21.8124 39.1587 21.7873 39.2925 21.7676C39.6203 21.7191 40.0796 21.5951 40.3866 21.4721C40.5406 21.4104 40.7945 21.2966 40.8436 21.2673C40.862 21.2564 40.9554 21.2067 41.0511 21.157C41.1469 21.1073 41.2522 21.0483 41.2852 21.0259C41.3181 21.0034 41.4354 20.9264 41.5457 20.8547C41.8236 20.6741 42.2295 20.3505 42.4757 20.1133C42.5942 19.9992 42.7018 19.9138 42.7275 19.9133C42.7523 19.9128 42.8189 19.95 42.8756 19.9958C42.9323 20.0416 43.1664 20.224 43.3958 20.4011C43.6252 20.5782 43.8946 20.7865 43.9945 20.8639C44.3831 21.1652 44.5051 21.2597 44.6301 21.356C44.7015 21.411 45.1189 21.7357 45.5577 22.0777C45.9965 22.4197 46.3993 22.7321 46.4527 22.7719C46.5062 22.8117 46.55 22.8625 46.55 22.8847C46.55 22.9225 46.1181 23.3633 45.835 23.6144C45.373 24.0243 44.8397 24.425 44.3767 24.7102C44.2541 24.7857 44.1275 24.8656 44.0955 24.8878C44.0634 24.91 44.0032 24.9444 43.9617 24.9642C43.9202 24.984 43.8361 25.0291 43.7748 25.0644C43.563 25.1863 42.8918 25.5086 42.8497 25.5086C42.8364 25.5086 42.7783 25.5336 42.7207 25.5641C42.6631 25.5947 42.6009 25.62 42.5824 25.6204C42.5639 25.6206 42.4987 25.6456 42.4374 25.6757C42.3761 25.7057 42.3086 25.7304 42.2873 25.7305C42.2661 25.7307 42.1859 25.755 42.109 25.7847C41.9328 25.8529 41.7783 25.9033 41.6318 25.9407C41.5687 25.9567 41.4558 25.991 41.3809 26.0168C41.3059 26.0427 41.2276 26.0638 41.2068 26.0638C41.1861 26.0638 41.0783 26.0882 40.9673 26.1179C40.5839 26.2208 39.766 26.3676 39.4069 26.3981C39.2715 26.4096 39.0904 26.429 39.0046 26.4412C38.5686 26.5032 37.4097 26.5255 36.7532 26.4845L36.7532 26.4845Z" fill="#0394E8"/>
<path d="M75.6409 21.3563C76.1273 21.2719 76.562 21.1503 76.8334 21.0229C77.1048 20.8955 77.269 20.8137 77.3684 20.7564C77.4297 20.721 77.5092 20.6754 77.5451 20.6549C77.5809 20.6344 77.6812 20.5669 77.768 20.5048C78.4124 20.0439 78.9757 19.4094 79.3589 18.713C79.5423 18.3795 79.7291 17.9653 79.7994 17.7359C79.8162 17.681 79.8493 17.5761 79.873 17.5028C79.9605 17.2323 80.0077 17.0549 80.0315 16.9083C80.0449 16.8256 80.0657 16.7322 80.0777 16.7008C80.1131 16.608 80.1882 15.7493 80.1872 15.4487C80.1859 15.0711 80.1167 14.5131 80.0355 14.2273C79.9403 13.8921 79.8142 13.5621 79.736 13.4431C79.715 13.4112 79.6978 13.3783 79.6978 13.37C79.6978 13.3617 79.6402 13.2639 79.5698 13.1527C79.3589 12.8195 79.0677 12.494 78.7528 12.2392C78.5442 12.0705 78.1209 11.8318 77.9093 11.7637C77.8635 11.749 77.8209 11.7288 77.8148 11.7189C77.8086 11.7089 77.7658 11.6938 77.7197 11.6852C77.6736 11.6766 77.5807 11.651 77.5133 11.6283C77.4459 11.6057 77.2352 11.5601 77.0452 11.5271C76.7381 11.4737 76.6403 11.4668 76.1647 11.4651C75.6988 11.4632 75.5938 11.4695 75.3511 11.5136C74.5837 11.6528 74.1747 11.802 73.5494 12.1707C72.9416 12.5291 72.4658 12.9741 71.9741 13.6437C71.787 13.8985 71.4272 14.5538 71.3305 14.8158C71.3125 14.8646 71.2708 14.9746 71.2379 15.0601C71.2049 15.1455 71.1638 15.2605 71.1463 15.3154C71.1289 15.3704 71.0954 15.4753 71.0718 15.5486C71.0482 15.6219 71.0192 15.7368 71.0072 15.804C70.9953 15.8711 70.9739 15.9561 70.9598 15.9927C70.9457 16.0294 70.9193 16.1693 70.9012 16.3036C70.883 16.438 70.8539 16.6528 70.8364 16.7811C70.8182 16.9149 70.8045 17.1989 70.8042 17.4477C70.8039 17.8232 70.8124 17.933 70.8684 18.2693C70.904 18.4828 70.9488 18.6975 70.9681 18.7463C70.9874 18.7952 71.0125 18.8751 71.024 18.924C71.0755 19.1436 71.293 19.5812 71.4961 19.874C71.7741 20.2748 72.0729 20.5675 72.4532 20.8116C72.6432 20.9336 72.9379 21.0891 72.9789 21.0891C72.9875 21.0891 73.0358 21.1083 73.0861 21.1318C73.3062 21.2342 73.8506 21.3556 74.2923 21.4008C74.6142 21.4337 75.331 21.4101 75.6409 21.3563ZM73.735 26.4932C73.5293 26.484 72.7115 26.3971 72.4867 26.3606C72.3764 26.3427 72.1958 26.3138 72.0855 26.2964C71.8742 26.2631 71.5954 26.201 71.3165 26.1252C71.2245 26.1002 71.0995 26.0703 71.0387 26.0586C70.9779 26.047 70.9026 26.0245 70.8715 26.0087C70.8404 25.9929 70.7798 25.9733 70.7369 25.9652C70.694 25.9571 70.5912 25.9259 70.5084 25.8959C70.1056 25.7498 70.0264 25.7197 69.9191 25.6714C69.8555 25.6427 69.7927 25.6193 69.7795 25.6193C69.7524 25.6193 69.7113 25.5998 69.1908 25.34C68.9841 25.2368 68.7897 25.1325 68.7587 25.1082C68.7278 25.084 68.6932 25.0641 68.682 25.0641C68.657 25.0641 68.3454 24.8606 68.0732 24.6665C67.2093 24.0505 66.3653 23.1333 65.8873 22.2911C65.8691 22.259 65.8252 22.1828 65.7897 22.1218C65.6549 21.8896 65.4272 21.421 65.3419 21.2002C65.1167 20.6171 64.9587 20.0279 64.8863 19.5014C64.8678 19.367 64.8409 19.1872 64.8264 19.1017C64.793 18.9038 64.792 17.2903 64.8251 17.0253C64.8381 16.9215 64.8699 16.6567 64.8957 16.4369C64.9215 16.217 64.9519 16.0022 64.9633 15.9594C64.9746 15.9167 64.9946 15.8117 65.0077 15.7263C65.0379 15.5283 65.1336 15.0908 65.1756 14.9585C65.1933 14.9026 65.222 14.7927 65.2393 14.7142C65.2565 14.6357 65.2863 14.5265 65.3055 14.4716C65.3387 14.3762 65.3964 14.1993 65.4649 13.983C65.4969 13.8823 65.5883 13.6313 65.6752 13.4057C65.7011 13.3385 65.7372 13.257 65.7553 13.2246C65.7735 13.1922 65.7884 13.1545 65.7884 13.1409C65.7884 13.0751 66.2313 12.1919 66.4407 11.8401C66.6279 11.5257 66.8889 11.1275 67.0255 10.9482C67.0745 10.8838 67.1448 10.7893 67.1815 10.7383C67.4256 10.3997 68.091 9.67345 68.4744 9.32726C69.1705 8.69872 69.8893 8.19137 70.7106 7.74882C71.0507 7.56555 71.652 7.2763 71.7623 7.24289C71.7929 7.2336 71.853 7.20742 71.8957 7.1847C71.9384 7.16199 71.9865 7.1434 72.0025 7.1434C72.0185 7.1434 72.0704 7.12365 72.1178 7.09954C72.1653 7.07541 72.2426 7.04617 72.2897 7.03455C72.3368 7.02293 72.4304 6.99347 72.4979 6.9691C72.7215 6.88829 73.3028 6.72382 73.5121 6.68216C73.5734 6.66997 73.6988 6.64434 73.7907 6.62523C74.1809 6.54414 74.4754 6.49628 74.7104 6.47579C74.8482 6.46378 75.0212 6.44469 75.0947 6.43338C75.6424 6.34918 77.0339 6.34819 77.8031 6.43155C78.0421 6.45744 78.338 6.49454 78.4606 6.51403C78.5832 6.53351 78.7688 6.56289 78.873 6.57933C79.0531 6.60772 79.2638 6.65303 79.5863 6.73269C79.666 6.75239 79.7949 6.78318 79.8727 6.80113C79.9505 6.8191 80.0507 6.84901 80.0954 6.86761C80.1401 6.8862 80.2219 6.91128 80.2772 6.92332C80.3324 6.93536 80.4278 6.96394 80.4891 6.98682C80.5504 7.00972 80.6758 7.05535 80.7677 7.08823C80.9343 7.14781 81.0299 7.18621 81.3473 7.32111C81.5885 7.42361 82.1678 7.71431 82.2335 7.7658C82.2643 7.78993 82.2983 7.80969 82.309 7.80969C82.3321 7.80969 82.7873 8.10454 83.008 8.26247C83.2944 8.46748 83.6739 8.79181 83.9445 9.06269C84.1806 9.29908 84.5873 9.76192 84.6972 9.91931C84.7185 9.94985 84.7634 10.0138 84.797 10.0613C84.9505 10.2788 85.1454 10.5837 85.2482 10.7674C85.2907 10.8434 85.5727 11.4118 85.6261 11.5293C85.6927 11.6755 85.763 11.8561 85.7949 11.9623C85.8114 12.0173 85.8403 12.1072 85.8592 12.1622C85.9215 12.3436 86.0063 12.639 86.0062 12.6743C86.0062 12.6934 86.0263 12.7859 86.051 12.8798C86.0973 13.0561 86.1706 13.5378 86.2104 13.9276C86.2441 14.2573 86.22 15.8253 86.1772 16.0927C86.1586 16.2088 86.137 16.3787 86.1291 16.4703C86.0916 16.9053 85.8968 17.847 85.7271 18.4133C85.6978 18.511 85.6639 18.626 85.6518 18.6687C85.6396 18.7115 85.5985 18.8314 85.5604 18.9352C85.5223 19.039 85.4773 19.172 85.4605 19.2308C85.4436 19.2896 85.414 19.3617 85.3947 19.391C85.3754 19.4204 85.3596 19.4556 85.3596 19.4692C85.3596 19.4941 85.2615 19.7344 85.1833 19.9012C85.1604 19.95 85.1103 20.06 85.0719 20.1455C85.0336 20.231 84.9863 20.3309 84.9669 20.3675C84.9475 20.4042 84.896 20.5041 84.8523 20.5896C84.6646 20.9576 84.2934 21.5523 84.0022 21.9516C83.671 22.4058 83.1126 23.041 82.7463 23.3802C82.2913 23.8015 82.006 24.0374 81.5893 24.337C81.3813 24.4865 80.8442 24.8422 80.8263 24.8422C80.8211 24.8422 80.7481 24.8839 80.6641 24.935C80.4341 25.0749 80.048 25.2744 79.6866 25.4401C79.6131 25.4738 79.4977 25.5269 79.4303 25.5581C79.3629 25.5893 79.2826 25.6223 79.252 25.6313C79.2213 25.6404 79.1613 25.6664 79.1186 25.6891C79.0758 25.7118 79.0257 25.7305 79.0071 25.7306C78.9885 25.7308 78.9232 25.7554 78.8619 25.7854C78.8006 25.8155 78.7331 25.8404 78.7119 25.8408C78.6906 25.841 78.6104 25.8653 78.5335 25.8945C78.3943 25.9473 78.1052 26.0355 77.9145 26.0833C77.4814 26.1918 77.2473 26.245 77.1009 26.2683C77.0274 26.28 76.8618 26.3093 76.7331 26.3334C76.6044 26.3574 76.3887 26.3865 76.2539 26.3979C76.119 26.4094 75.9385 26.4287 75.8526 26.4409C75.4646 26.4961 74.3906 26.5226 73.735 26.4933L73.735 26.4932Z" fill="#0394E8"/>
<path d="M156.756 26.494C156.519 26.4783 155.784 26.3915 155.608 26.3584C155.085 26.2603 154.702 26.1667 154.544 26.0988C154.499 26.0792 154.443 26.0632 154.421 26.0632C154.399 26.0632 154.346 26.0447 154.304 26.022C154.261 25.9994 154.186 25.9681 154.137 25.9525C154.088 25.937 154.022 25.9114 153.992 25.8957C153.961 25.88 153.851 25.8253 153.747 25.7742C153.061 25.4378 152.539 25.0036 152.187 24.4754C152.045 24.2631 151.837 23.8342 151.782 23.6426C151.77 23.5999 151.741 23.515 151.719 23.4539C151.65 23.2684 151.564 22.8049 151.54 22.489C151.478 21.667 151.548 20.5868 151.717 19.7565C151.741 19.6405 151.766 19.5056 151.773 19.4567C151.788 19.351 151.881 18.8358 151.942 18.524C151.965 18.4019 151.996 18.227 152.008 18.1354C152.021 18.0438 152.046 17.9139 152.062 17.8467C152.079 17.7795 152.099 17.6646 152.108 17.5913C152.116 17.5181 152.14 17.3782 152.163 17.2805C152.185 17.1827 152.21 17.0428 152.219 16.9696C152.227 16.8963 152.252 16.7564 152.274 16.6587C152.297 16.561 152.322 16.4211 152.33 16.3478C152.338 16.2745 152.364 16.1296 152.388 16.0258C152.411 15.922 152.44 15.7581 152.453 15.6617C152.466 15.5653 152.49 15.4304 152.508 15.3619C152.525 15.2935 152.545 15.1775 152.554 15.1042C152.562 15.0309 152.583 14.9149 152.6 14.8465C152.617 14.778 152.642 14.6431 152.655 14.5467C152.668 14.4503 152.697 14.2864 152.72 14.1826C152.743 14.0788 152.769 13.9339 152.777 13.8606C152.785 13.7874 152.811 13.6475 152.833 13.5497C152.856 13.452 152.881 13.3121 152.889 13.2388C152.898 13.1656 152.923 13.0257 152.945 12.928C152.967 12.8302 152.991 12.6903 153 12.6171C153.008 12.5438 153.029 12.4266 153.046 12.3567C153.064 12.2868 153.093 12.1255 153.111 11.9983C153.129 11.8711 153.154 11.7407 153.166 11.7086C153.184 11.6611 153.18 11.6421 153.144 11.6063C153.101 11.5633 153.066 11.5622 151.612 11.5619C150.781 11.5617 150.11 11.5528 150.093 11.5418C150.058 11.5196 150.077 11.3544 150.159 10.9738C150.183 10.8639 150.212 10.6995 150.225 10.6084C150.238 10.5174 150.262 10.3875 150.28 10.3197C150.297 10.252 150.322 10.1177 150.335 10.0212C150.348 9.92483 150.373 9.78993 150.391 9.72146C150.408 9.65299 150.433 9.51809 150.446 9.42167C150.46 9.32525 150.485 9.19035 150.502 9.12188C150.52 9.05342 150.545 8.91851 150.558 8.82209C150.571 8.72567 150.596 8.59077 150.614 8.5223C150.631 8.45384 150.656 8.31893 150.669 8.22251C150.682 8.1261 150.708 7.99119 150.725 7.92272C150.743 7.85426 150.768 7.7183 150.781 7.62059C150.794 7.52288 150.82 7.38797 150.838 7.3208C150.856 7.25362 150.871 7.17689 150.871 7.15028C150.872 7.02792 150.817 7.03211 152.395 7.03211C153.525 7.03211 153.858 7.0259 153.888 7.00428C153.912 6.98655 153.938 6.91206 153.958 6.79887C154.065 6.21251 154.104 5.98718 154.116 5.88847C154.124 5.8274 154.144 5.71719 154.161 5.64355C154.177 5.56991 154.206 5.4018 154.225 5.26998C154.243 5.13816 154.264 5.0214 154.271 5.01053C154.278 4.99967 154.302 4.86298 154.326 4.7068C154.349 4.55062 154.384 4.34289 154.402 4.24518C154.467 3.90371 154.548 3.44441 154.571 3.28148C154.584 3.19113 154.6 3.10906 154.606 3.09911C154.612 3.08914 154.637 2.95321 154.66 2.79703C154.683 2.64085 154.718 2.44311 154.737 2.35762C154.756 2.27212 154.771 2.17691 154.772 2.14604C154.772 2.11517 154.788 2.06771 154.807 2.04056L154.841 1.99121H157.783H160.725L160.748 2.05187C160.765 2.09744 160.762 2.14856 160.734 2.25728C160.714 2.3369 160.679 2.52195 160.656 2.66851C160.633 2.81508 160.599 3.01993 160.579 3.12375C160.56 3.22756 160.519 3.4524 160.49 3.6234C160.46 3.79439 160.42 4.01923 160.4 4.12305C160.381 4.22686 160.351 4.40174 160.335 4.51166C160.306 4.70398 160.248 5.02549 160.175 5.39993C160.157 5.49763 160.127 5.68139 160.109 5.80828C160.091 5.93516 160.062 6.09505 160.045 6.16358C160.027 6.23211 160.007 6.34315 159.999 6.41033C159.992 6.4775 159.964 6.62956 159.939 6.74823C159.901 6.92447 159.897 6.97023 159.921 6.99805C159.946 7.02818 160.174 7.03211 161.901 7.03211C163.941 7.03211 164 7.03476 164 7.1254C164 7.14738 163.986 7.16535 163.968 7.16535C163.934 7.16535 163.889 7.2904 163.889 7.38742C163.888 7.41795 163.868 7.53787 163.843 7.6539C163.818 7.76993 163.788 7.92981 163.777 8.0092C163.765 8.08859 163.736 8.24848 163.712 8.36451C163.644 8.69396 163.575 9.06748 163.541 9.28608C163.524 9.39601 163.5 9.51592 163.488 9.55256C163.476 9.5892 163.456 9.69413 163.444 9.78573C163.431 9.87733 163.402 10.0422 163.378 10.1521C163.355 10.2621 163.32 10.4419 163.3 10.5519C163.182 11.2212 163.131 11.4762 163.107 11.5209C163.086 11.5608 163.016 11.5623 161.181 11.5623C160.026 11.5623 159.256 11.5706 159.222 11.5835C159.158 11.6075 159.139 11.6636 159.087 11.9731C159.019 12.3842 158.98 12.6005 158.939 12.7947C158.916 12.9046 158.886 13.0695 158.873 13.1611C158.86 13.2527 158.835 13.3826 158.818 13.4498C158.801 13.517 158.781 13.6319 158.773 13.7052C158.765 13.7785 158.743 13.8984 158.724 13.9717C158.705 14.0449 158.677 14.1898 158.662 14.2937C158.647 14.3975 158.613 14.5873 158.588 14.7156C158.563 14.8438 158.533 15.0037 158.521 15.0709C158.446 15.4852 158.422 15.6159 158.382 15.8148C158.358 15.937 158.328 16.1068 158.315 16.1923C158.302 16.2778 158.278 16.4027 158.261 16.4699C158.244 16.5371 158.224 16.652 158.215 16.7253C158.207 16.7986 158.182 16.9335 158.16 17.0251C158.138 17.1167 158.113 17.2516 158.105 17.3249C158.097 17.3981 158.076 17.5131 158.059 17.5802C158.042 17.6474 158.012 17.8073 157.993 17.9355C157.974 18.0638 157.944 18.2237 157.927 18.2909C157.91 18.358 157.89 18.468 157.882 18.5351C157.873 18.6023 157.848 18.7422 157.824 18.846C157.777 19.0572 157.714 19.7637 157.714 20.094C157.714 20.6097 157.846 21.0274 158.081 21.2554C158.194 21.3649 158.444 21.533 158.493 21.533C158.507 21.533 158.556 21.5516 158.601 21.5744C158.647 21.5971 158.809 21.6446 158.963 21.6799C159.229 21.7411 159.264 21.7439 159.743 21.7413C160.095 21.7395 160.304 21.7281 160.445 21.703C160.555 21.6833 160.721 21.6572 160.813 21.6448C160.905 21.6325 161.053 21.6057 161.143 21.5852C161.373 21.5327 161.382 21.5444 161.348 21.8355C161.303 22.2172 161.265 22.5077 161.178 23.143C161.146 23.3713 161.132 23.4876 161.081 23.9091C161.07 24.0007 161.046 24.1806 161.028 24.3088C161.009 24.4371 160.984 24.627 160.972 24.7308C160.96 24.8346 160.935 25.0245 160.917 25.1527C160.899 25.2809 160.872 25.4904 160.858 25.6181C160.843 25.7459 160.822 25.8681 160.81 25.8898C160.785 25.9379 160.583 26.0352 160.427 26.0752C160.363 26.0915 160.251 26.1209 160.177 26.1407C160.104 26.1605 159.971 26.1961 159.883 26.2199C159.794 26.2436 159.649 26.2733 159.56 26.2858C159.472 26.2983 159.338 26.3226 159.264 26.3398C159.19 26.357 159.019 26.3825 158.884 26.3965C158.749 26.4104 158.549 26.4368 158.439 26.4551C158.246 26.487 157.063 26.5144 156.756 26.494H156.756Z" fill="#0394E8"/>
<path d="M50.2521 25.9214C50.2315 25.8967 50.2335 25.8438 50.261 25.6853C50.2805 25.5729 50.3013 25.473 50.3073 25.4633C50.3134 25.4535 50.3326 25.3474 50.3501 25.2275C50.3676 25.1075 50.4016 24.9094 50.4258 24.7873C50.4499 24.6652 50.4794 24.5053 50.4914 24.432C50.5033 24.3587 50.5292 24.2138 50.5488 24.11C50.5684 24.0062 50.6102 23.7763 50.6416 23.5992C50.6729 23.4221 50.7185 23.1773 50.7428 23.0552C50.7671 22.933 50.797 22.7586 50.8092 22.6676C50.8214 22.5766 50.8455 22.4467 50.8628 22.3789C50.88 22.3112 50.9007 22.1958 50.9088 22.1225C50.9168 22.0492 50.9423 21.9043 50.9653 21.8005C50.9884 21.6967 51.0177 21.5329 51.0305 21.4364C51.0432 21.34 51.0679 21.2051 51.0853 21.1367C51.1027 21.0682 51.1238 20.9522 51.1322 20.8789C51.1406 20.8057 51.1656 20.6658 51.1878 20.568C51.21 20.4703 51.2345 20.3354 51.2423 20.2683C51.2501 20.2011 51.2755 20.0562 51.2987 19.9463C51.3219 19.8363 51.3564 19.654 51.3754 19.541C51.3944 19.428 51.4254 19.2431 51.4444 19.1302C51.4634 19.0172 51.4979 18.8348 51.5211 18.7249C51.5443 18.615 51.5697 18.4701 51.5775 18.4029C51.5853 18.3357 51.6098 18.2008 51.632 18.1031C51.6542 18.0054 51.6794 17.8655 51.688 17.7922C51.6967 17.7189 51.7222 17.579 51.7449 17.4813C51.7675 17.3836 51.7927 17.2437 51.801 17.1704C51.8092 17.0971 51.8341 16.9572 51.8562 16.8595C51.8784 16.7618 51.9035 16.6219 51.9121 16.5486C51.9206 16.4754 51.9458 16.3355 51.968 16.2378C51.9902 16.14 52.0147 16.0051 52.0225 15.938C52.0303 15.8708 52.0556 15.7259 52.0789 15.616C52.1021 15.506 52.1362 15.3262 52.1546 15.2163C52.1731 15.1063 52.2041 14.9215 52.2236 14.8054C52.2431 14.6894 52.2781 14.5045 52.3013 14.3946C52.3245 14.2847 52.3499 14.1398 52.3577 14.0726C52.3654 14.0054 52.39 13.8705 52.4122 13.7728C52.4344 13.6751 52.4596 13.5352 52.4682 13.4619C52.4768 13.3886 52.5022 13.2487 52.5246 13.151C52.5469 13.0533 52.5718 12.9134 52.5798 12.8401C52.5879 12.7669 52.6086 12.6515 52.6258 12.5837C52.643 12.516 52.6671 12.3861 52.6793 12.295C52.6916 12.204 52.7215 12.0296 52.7458 11.9075C52.77 11.7853 52.8164 11.5355 52.8488 11.3523C52.8812 11.1691 52.9224 10.9443 52.9404 10.8527C52.9584 10.761 52.9878 10.5962 53.0059 10.4862C53.0239 10.3763 53.053 10.2305 53.0704 10.1622C53.0879 10.0939 53.1134 9.94399 53.127 9.82909C53.1406 9.71419 53.1658 9.55828 53.183 9.48261C53.2002 9.40694 53.2251 9.25205 53.2385 9.13841C53.2518 9.02477 53.277 8.85184 53.2946 8.75413C53.3121 8.65642 53.3414 8.44656 53.3597 8.28779C53.3781 8.12901 53.4074 7.89917 53.425 7.77704C53.4426 7.6549 53.464 7.43138 53.4726 7.28033C53.4854 7.05446 53.4956 6.99826 53.5301 6.96388C53.5708 6.92339 53.6611 6.92208 56.4211 6.92208C58.7071 6.92208 59.2778 6.92772 59.3092 6.95063C59.3447 6.97649 59.3463 7.00009 59.3268 7.20045C59.2969 7.5071 59.2384 7.97868 59.1973 8.24338C59.1784 8.36551 59.1529 8.55538 59.1407 8.6653C59.1285 8.77522 59.0985 8.97508 59.0741 9.10943C59.0088 9.46974 58.9973 9.64351 59.038 9.65904C59.0837 9.67651 59.102 9.65957 59.1891 9.52026C59.3945 9.19164 59.8722 8.59776 60.214 8.24604C60.6449 7.80266 61.2654 7.31556 61.7293 7.05651C61.9151 6.95273 62.2154 6.81105 62.2495 6.81105C62.2617 6.81105 62.313 6.79203 62.3634 6.76878C62.481 6.71447 62.8001 6.6171 62.9514 6.58932C63.016 6.57746 63.1292 6.55218 63.2029 6.53315C63.3835 6.48652 63.9912 6.43453 64.3608 6.43408C64.6749 6.43382 65.3265 6.48515 65.4419 6.51944C65.5606 6.55472 65.6302 6.5948 65.6431 6.63533C65.6501 6.6571 65.6407 6.72804 65.6223 6.79295C65.6039 6.85787 65.5783 6.98987 65.5653 7.08628C65.5524 7.1827 65.5275 7.31761 65.51 7.38607C65.4925 7.45454 65.4673 7.59019 65.454 7.68752C65.4407 7.78484 65.4188 7.90476 65.4053 7.95399C65.3918 8.00323 65.3681 8.12846 65.3527 8.23227C65.3226 8.4348 65.255 8.80192 65.1851 9.14274C65.1612 9.25877 65.1313 9.42818 65.1185 9.5192C65.1057 9.61023 65.0811 9.74014 65.0638 9.80789C65.0464 9.87564 65.0213 10.012 65.008 10.111C64.9946 10.21 64.9738 10.3249 64.9616 10.3664C64.9494 10.4079 64.9243 10.5418 64.9057 10.6639C64.887 10.786 64.858 10.9409 64.8411 11.0081C64.8242 11.0753 64.8041 11.1852 64.7965 11.2524C64.7826 11.3749 64.713 11.722 64.6703 11.882C64.6487 11.9626 64.6434 11.9668 64.5766 11.9551C64.3947 11.9233 64.1095 11.8701 63.9373 11.8358C63.7873 11.806 63.6202 11.7981 63.1348 11.7976C62.5968 11.7971 62.485 11.8033 62.2209 11.8479C61.7854 11.9215 61.4012 12.0171 61.2728 12.0838C61.2364 12.1027 61.1944 12.1182 61.1794 12.1183C61.1482 12.1185 60.6446 12.3625 60.5268 12.4346C60.157 12.6607 59.9143 12.8396 59.6704 13.0659C59.2311 13.4736 58.8678 13.9624 58.6321 14.463C58.5809 14.572 58.529 14.6797 58.5168 14.7025C58.4862 14.7601 58.323 15.2416 58.1923 15.6604C58.1464 15.8077 58.0825 16.0999 58.0394 16.3599C58.0202 16.4759 57.9854 16.6608 57.962 16.7707C57.9387 16.8806 57.9092 17.0502 57.8965 17.1475C57.8837 17.2449 57.8634 17.3612 57.8513 17.406C57.8391 17.4509 57.814 17.5957 57.7953 17.728C57.7767 17.8602 57.7474 18.0237 57.7303 18.0913C57.7131 18.1588 57.6923 18.2741 57.6841 18.3474C57.6758 18.4207 57.651 18.5656 57.6288 18.6694C57.6066 18.7732 57.5822 18.9131 57.5744 18.9803C57.5667 19.0474 57.541 19.1973 57.5173 19.3134C57.4937 19.4294 57.4585 19.6193 57.4393 19.7353C57.42 19.8513 57.3894 20.0362 57.3712 20.1461C57.353 20.256 57.3187 20.4409 57.295 20.5569C57.2712 20.673 57.2418 20.8428 57.2296 20.9344C57.2174 21.0261 57.1927 21.166 57.1746 21.2453C57.1565 21.3247 57.1351 21.4496 57.127 21.5229C57.1188 21.5962 57.0983 21.7115 57.0815 21.779C57.0646 21.8466 57.0355 22.0101 57.0169 22.1423C56.9982 22.2746 56.9731 22.4194 56.9609 22.4643C56.9488 22.5091 56.9283 22.6254 56.9153 22.7228C56.9023 22.8201 56.8723 22.9947 56.8485 23.1107C56.8248 23.2267 56.7901 23.4141 56.7714 23.5271C56.7527 23.64 56.722 23.8249 56.7033 23.9379C56.6846 24.0509 56.6499 24.2382 56.6264 24.3543C56.6029 24.4703 56.5777 24.6152 56.5704 24.6763C56.5632 24.7373 56.5378 24.8872 56.5141 25.0094C56.4903 25.1315 56.4557 25.3214 56.4371 25.4313C56.3894 25.7139 56.3502 25.8931 56.3293 25.9254C56.315 25.9474 55.6835 25.9531 53.2949 25.9531C50.7056 25.9531 50.2748 25.9486 50.2521 25.9214H50.2521Z" fill="#0394E8"/>
<path d="M91.0765 26.0657L87.209 0.00199995L94.0068 0L95.7566 17.9999L91.0765 26.0657Z" fill="#0394E8"/>
<path d="M98.1864 26.151L113.522 0.0336672L106.18 0.00683594L91.0762 26.0652L98.1864 26.151Z" fill="#002285"/>
<path d="M27.7852 26.8241L10.7381 7.46484L0 26.8241C0 26.8241 8.95153 25.6081 14.417 18.6982C14.5455 18.5358 27.7852 26.8241 27.7852 26.8241Z" fill="#1FC3F3" fill-opacity="0.972549"/>
<path d="M14.7131 0.29834L10.7383 7.46411L27.7854 26.8233L21.2493 13.5608L17.1623 5.26771L14.7131 0.29834Z" fill="#0776CC"/>
<path d="M14.7133 0.29834L0 26.8236C0 26.8236 6.50376 24.1268 10.8702 16.7074L6.87886 14.4414L10.8702 16.7074C13.2207 12.7135 14.9623 7.37363 14.7133 0.29834Z" fill="#002488" fill-opacity="0.552238"/>
<path d="M17.1576 5.25849L14.7085 0.289062C14.5625 4.418 14.1869 8.18122 13.5117 10.6124L16.5606 14.0965C17.2457 11.4673 17.5701 8.60302 17.1576 5.25849Z" fill="#003AA1"/>
<path d="M16.5994 14.0903C16.0983 16.2429 15.2916 17.8186 14.4309 18.6964L10.8711 16.7076C11.4443 15.6595 12.7352 13.0059 13.5115 10.6123L16.5994 14.0903Z" fill="#0091E7"/>
</svg>
