<svg width="22" height="20" viewBox="0 0 22 20" fill="none" xmlns="http://www.w3.org/2000/svg">
<path d="M20.2865 1.84C19.1047 0.64 17.6079 0 15.9534 0C14.299 0 12.8021 0.64 11.6992 1.84L10.9902 2.56L10.2811 1.84C9.17816 0.64 7.68129 0 6.02686 0C4.37243 0 2.87556 0.64 1.77261 1.84C-0.590868 4.32 -0.590868 8.32 1.77261 10.72L10.2023 19.68C10.4387 19.92 10.675 20 10.9902 20C11.3053 20 11.5416 19.84 11.778 19.68L20.2865 10.8C22.5712 8.32 22.5712 4.32 20.2865 1.84ZM16.5049 9.6H14.1415C13.9051 9.6 13.6688 9.44 13.5112 9.28L12.8021 8.16L11.778 10.72C11.6204 10.96 11.3053 11.2 10.9902 11.2C10.675 11.2 10.4387 11.04 10.2811 10.72L9.17816 8.48L8.39033 9.28C8.23277 9.52 8.0752 9.6 7.83885 9.6H5.47538C5.00269 9.6 4.68756 9.28 4.68756 8.8C4.68756 8.32 5.00269 8 5.47538 8H7.52373L8.86303 6.64C9.02059 6.48 9.25694 6.4 9.57207 6.4C9.80842 6.48 10.0448 6.64 10.1235 6.8L10.9114 8.4L11.8568 6.08C11.9355 5.84 12.2507 5.6 12.487 5.6C12.8021 5.6 13.0385 5.68 13.1961 5.92L14.5354 8H16.5049C16.9776 8 17.2927 8.32 17.2927 8.8C17.2927 9.28 16.9776 9.6 16.5049 9.6Z" fill="#0175FF"/>
</svg>
