<svg width="20" height="14" viewBox="0 0 20 14" fill="none" xmlns="http://www.w3.org/2000/svg">
<path d="M19.5822 2.18613C19.3522 1.32559 18.6746 0.647969 17.814 0.417969C16.2542 -1.11759e-07 10 0 10 0C10 0 3.74583 -1.11759e-07 2.18598 0.417969C1.32559 0.647969 0.647814 1.32559 0.417852 2.18613C0 3.74582 0 7.00012 0 7.00012C0 7.00012 0 10.2543 0.417852 11.8139C0.647814 12.6744 1.32559 13.3522 2.18598 13.5822C3.74583 14 10 14 10 14C10 14 16.2542 14 17.814 13.5822C18.6746 13.3522 19.3522 12.6744 19.5822 11.8139C20 10.2543 20 7.00012 20 7.00012C20 7.00012 20 3.74582 19.5822 2.18613ZM7.9999 10.0002V4.00004L13.196 7.00012L7.9999 10.0002Z" fill="white"/>
</svg>
